<svg xmlns="http://www.w3.org/2000/svg" viewBox="0 0 512 512">
    <path fill="#fff" d="M133.164 429.958H118.11v-8.42l10.01-11.024a34.014 34.014 0 0 0 8.85-22.912v-27.29c0-20.014-16.282-36.296-36.295-36.296H84.757c-20.014 0-36.296 16.283-36.296 36.296v27.29c0 8.49 3.144 16.626 8.85 22.91l10.01 11.024v8.42H52.268c-19.714 0-35.752 16.04-35.752 35.752v38.62a7.67 7.67 0 0 0 7.67 7.67h137.062a7.669 7.669 0 0 0 7.67-7.67V465.71c0-19.714-16.04-35.752-35.753-35.752zm20.41 66.7H31.854V465.71c0-11.255 9.157-20.41 20.41-20.41H74.99a7.67 7.67 0 0 0 7.67-7.67v-19.326a7.66 7.66 0 0 0-3.243-6.266L68.667 400.2a18.709 18.709 0 0 1-4.865-12.6v-27.288c0-11.554 9.4-20.955 20.955-20.955h15.917c11.554 0 20.955 9.4 20.955 20.955v27.29c0 4.667-1.73 9.142-4.867 12.598l-10.748 11.84a7.658 7.658 0 0 0-3.244 6.265v19.325a7.67 7.67 0 0 0 7.672 7.67h22.724c11.255 0 20.41 9.157 20.41 20.41v30.948zm306.159-390.715H444.68V97.52l10.01-11.02a34.024 34.024 0 0 0 8.85-22.913v-27.29C463.54 16.284 447.256 0 427.243 0h-15.917c-20.014 0-36.296 16.284-36.296 36.297v27.29a34.014 34.014 0 0 0 8.85 22.91l10.01 11.023v8.422h-15.054c-19.714 0-35.752 16.04-35.752 35.752v38.618a7.67 7.67 0 0 0 7.67 7.67h137.062a7.669 7.669 0 0 0 7.67-7.67v-38.617c0-19.713-16.04-35.752-35.753-35.752zm-101.308 66.7v-30.948c0-11.255 9.156-20.41 20.41-20.41h22.724a7.67 7.67 0 0 0 7.67-7.67V94.286a7.664 7.664 0 0 0-3.244-6.266l-10.748-11.837a18.698 18.698 0 0 1-4.867-12.6V36.298c0-11.555 9.4-20.956 20.956-20.956h15.917c11.554 0 20.955 9.4 20.955 20.957v27.29c0 4.667-1.73 9.142-4.866 12.598l-10.748 11.838a7.662 7.662 0 0 0-3.244 6.266v19.325a7.67 7.67 0 0 0 7.67 7.67h22.725c11.255 0 20.41 9.157 20.41 20.41v30.948h-121.72zm-17.151-81.449l-33.78-33.78a7.672 7.672 0 0 0-10.847 0 7.672 7.672 0 0 0 0 10.85l20.685 20.685H92.847a7.669 7.669 0 0 0-7.67 7.67v23.42c0 4.236 3.433 7.67 7.67 7.67s7.67-3.433 7.67-7.67v-15.75h216.814l-20.683 20.684a7.672 7.672 0 0 0 5.424 13.095c1.964 0 3.927-.75 5.425-2.247l33.78-33.778a7.676 7.676 0 0 0 0-10.851zM92.847 146.85a7.67 7.67 0 0 0-7.67 7.672V288.4c0 4.237 3.433 7.67 7.67 7.67s7.67-3.432 7.67-7.67V154.52a7.67 7.67 0 0 0-7.67-7.67zM418.94 202.5a7.669 7.669 0 0 0-7.67 7.67v204.872H190.422l20.685-20.685a7.672 7.672 0 0 0-10.848-10.85l-33.78 33.78a7.674 7.674 0 0 0 0 10.85l33.78 33.778c1.497 1.497 3.46 2.246 5.424 2.246s3.926-.748 5.424-2.245a7.672 7.672 0 0 0 0-10.85l-20.685-20.683H418.94a7.67 7.67 0 0 0 7.67-7.67V210.17a7.67 7.67 0 0 0-7.67-7.67zm-112.074 18.054c-.748-19.693-16.76-35.706-36.455-36.455-10.426-.395-20.293 3.36-27.79 10.58-7.503 7.224-11.634 16.935-11.634 27.345a7.67 7.67 0 0 0 7.67 7.67 7.67 7.67 0 0 0 7.672-7.67c0-6.202 2.462-11.99 6.93-16.293 4.468-4.3 10.342-6.542 16.57-6.303 11.726.446 21.26 9.98 21.706 21.706.403 10.603-6.446 19.943-16.653 22.714-8.014 2.176-13.613 9.51-13.613 17.835v19.296a7.671 7.671 0 0 0 15.342.002v-19.297c0-1.418.94-2.663 2.29-3.03 17.142-4.65 28.64-20.32 27.966-38.1z"/>
    <path fill="#fff" d="M268.94 292.623c-8.855 0-16.058 7.202-16.058 16.057 0 8.853 7.202 16.057 16.057 16.057s16.056-7.203 16.056-16.057c0-8.853-7.203-16.057-16.057-16.057zm0 16.773a.715.715 0 1 1 0-1.434.715.715 0 0 1 0 1.436z"/>
</svg>
